<svg width="30" height="30" viewBox="0 0 30 30" fill="none" xmlns="http://www.w3.org/2000/svg">
<path d="M26.25 23.75V21.6926C26.25 20.6703 25.6276 19.751 24.6785 19.3714L22.1358 18.3543C20.9286 17.8714 19.5527 18.3945 18.9713 19.5575L18.75 20C18.75 20 15.625 19.375 13.125 16.875C10.625 14.375 10 11.25 10 11.25L10.4425 11.0287C11.6055 10.4473 12.1286 9.07142 11.6457 7.8642L10.6286 5.32152C10.249 4.37238 9.32968 3.75 8.30742 3.75H6.25C4.86929 3.75 3.75 4.86929 3.75 6.25C3.75 17.2957 12.7043 26.25 23.75 26.25C25.1307 26.25 26.25 25.1307 26.25 23.75Z" fill="url(#paint0_linear_8109_24427)"/>
<path d="M18.4141 7.66211L20.4974 9.74545M20.4974 9.74545L22.5807 11.8288M20.4974 9.74545L22.5807 7.66211M20.4974 9.74545L18.4141 11.8288" stroke="url(#paint1_linear_8109_24427)" stroke-width="1.2" stroke-linecap="round" stroke-linejoin="round"/>
<path d="M26.75 10C26.75 13.4518 23.9518 16.25 20.5 16.25C17.0482 16.25 14.25 13.4518 14.25 10C14.25 6.54822 17.0482 3.75 20.5 3.75C23.9518 3.75 26.75 6.54822 26.75 10Z" stroke="url(#paint2_linear_8109_24427)" stroke-width="1.2" stroke-linecap="round" stroke-linejoin="round"/>
<defs>
<linearGradient id="paint0_linear_8109_24427" x1="3.75" y1="15" x2="26.25" y2="15" gradientUnits="userSpaceOnUse">
<stop stop-color="#3B6BFF"/>
<stop offset="1" stop-color="#2E96FF"/>
</linearGradient>
<linearGradient id="paint1_linear_8109_24427" x1="18.4141" y1="9.74544" x2="22.5807" y2="9.74544" gradientUnits="userSpaceOnUse">
<stop stop-color="#3B6BFF"/>
<stop offset="1" stop-color="#2E96FF"/>
</linearGradient>
<linearGradient id="paint2_linear_8109_24427" x1="14.25" y1="10" x2="26.75" y2="10" gradientUnits="userSpaceOnUse">
<stop stop-color="#3B6BFF"/>
<stop offset="1" stop-color="#2E96FF"/>
</linearGradient>
</defs>
</svg>
